<?xml version="1.0" encoding="UTF-8" standalone="no" ?>
<!DOCTYPE svg PUBLIC "-//W3C//DTD SVG 1.1//EN" "http://www.w3.org/Graphics/SVG/1.1/DTD/svg11.dtd">
<svg xmlns="http://www.w3.org/2000/svg" xmlns:xlink="http://www.w3.org/1999/xlink" version="1.1" viewBox="160 175 960 720" preserveAspectRatio="xMidYMid meet" xml:space="preserve">
<desc>Created with Fabric.js 4.4.0</desc>
<defs>
</defs>

<g transform="matrix(1.9211538461538462 0 0 1.9211538461538462 640 388.60073618447757)" id="logo-logo"  >
<g style=""  paint-order="stroke"   >
		<g transform="matrix(1.4713353661306845 0 0 1.4713353661306845 0 0)"  >
<path style="stroke: none; stroke-width: 1; stroke-dasharray: none; stroke-linecap: butt; stroke-dashoffset: 0; stroke-linejoin: miter; stroke-miterlimit: 4; fill: rgb(0,0,0); fill-rule: evenodd; opacity: 1;"  paint-order="stroke"  transform=" translate(-297.4656465628371, -421.0853480759703)" d="M 305.3457031 333.8081055 C 338.41210939999996 336.788086 359.2910156 349.3891602 366.1591797 370.3964844 C 374.0800781 394.6259766 361.2255859 409.6386719 364.7490234 419.50390630000004 C 368.2724609 429.36962900000003 373.7167968 436.39111330000003 377.8876953 441.487793 C 382.05664060000004 446.5844727 372.79003900000004 450.7543946 366.76757810000004 450.5229493 C 366.76757810000004 450.5229493 367.60839840000006 456.9428712 369.74121090000006 459.6850587 C 371.87304680000005 462.4262696 367.60839840000006 465.0161134 363.03808590000006 465.47216810000003 C 363.03808590000006 465.47216810000003 365.96191400000004 467.6538087 364.81054680000005 471.2241212 C 363.65820300000007 474.7944337 361.00878900000004 475.83154310000003 361.93066400000004 481.1293946 C 362.85253900000004 486.4282227 365.35937490000003 508.0737305 335.0576171 498.5600587 C 304.7548827 489.0463868 288.8120116 481.1850587 286.0795898 456.2778321 C 285.8725585 454.39111330000003 285.6333007 452.40771490000003 285.3691406 450.33642580000003 L 306.01171869999996 450.33642580000003 L 318.32617179999994 467.1586914 L 336.5 467.1586914 C 336.7890625 468.0209961 337.2763672 468.7944336 337.90625 469.4243164 C 338.9648438 470.4838867 340.4228516 471.1401367 342.0273438 471.1401367 C 343.63281259999997 471.1401367 345.0878907 470.4868164 346.1435547 469.4321289 C 347.203125 468.3735351 347.85839849999996 466.91455080000003 347.85839849999996 465.3100586 C 347.85839849999996 463.7045898 347.20312509999997 462.246582 346.1435547 461.1879883 C 345.0878906 460.13232419999997 343.6328125 459.47998049999995 342.0273438 459.47998049999995 C 340.4228516 459.47998049999995 338.9648438 460.13525389999995 337.90625 461.19482429999994 C 337.2763672 461.82568369999996 336.7900391 462.59912119999996 336.5 463.46142589999994 L 320.1914062 463.46142589999994 L 310.5830078 450.33642589999994 L 349.7402344 450.33642589999994 C 350.0302735 451.1987305999999 350.5166016 451.9721680999999 351.1464844 452.60302749999994 C 352.20605470000004 453.6616212999999 353.6640625 454.3178712999999 355.2675782 454.3178712999999 C 356.873047 454.3178712999999 358.3291016 453.6645509999999 359.3837891 452.6098634999999 C 360.444336 451.5502931999999 361.0996094 450.0922853999999 361.0996094 448.4877931999999 C 361.0996094 446.8823243999999 360.444336 445.4243165999999 359.3837891 444.36474629999987 C 358.3291016 443.31005879999987 356.8730469 442.6577149999999 355.2675782 442.6577149999999 C 353.6640626 442.6577149999999 352.2060548 443.3129883999999 351.1464844 444.37255879999987 C 350.5166016 445.0034181999999 350.0302735 445.7768556999999 349.7402344 446.63916039999987 L 284.88476560000004 446.63916039999987 L 266.33349610000005 446.63916039999987 C 266.04248050000007 447.5034181999999 265.55371090000006 448.27978539999987 264.9199219 448.91259789999987 C 263.86474610000005 449.96728539999987 262.40917970000004 450.6206056999999 260.803711 450.6206056999999 C 259.1997071 450.6206056999999 257.7416993 449.9643556999999 256.6831055 448.90478539999987 C 255.6279297 447.85009789999987 254.97509770000002 446.3950197999999 254.97509770000002 444.79052759999985 C 254.97509770000002 443.1860353999998 255.6279297 441.73095729999983 256.6831055 440.6752931999998 C 257.7416993 439.6157228999998 259.1997071 438.96044939999985 260.803711 438.96044939999985 C 262.4091798 438.96044939999985 263.8647462 439.6127931999998 264.9199219 440.6674806999998 C 265.553711 441.30126979999983 266.0424805 442.0766603999998 266.33349610000005 442.94189479999983 L 284.38134770000005 442.94189479999983 C 283.23144540000004 434.6049806999998 281.86718750000006 425.31689479999983 280.68603520000005 415.77099639999983 L 309.7792969000001 415.77099639999983 L 319.7548828000001 425.74658229999983 L 343.2597656000001 425.74658229999983 C 343.5498047000001 426.6088869999998 344.0361328000001 427.3823244999998 344.6660156000001 428.01318389999983 C 345.7246094000001 429.0717776999998 347.1826172000001 429.7280276999998 348.7871094000001 429.7280276999998 C 350.39257820000006 429.7280276999998 351.8486328000001 429.07568389999983 352.9033203000001 428.0200198999998 C 353.9628906000001 426.9604495999998 354.61816410000006 425.5024417999998 354.61816410000006 423.8979495999998 C 354.61816410000006 422.2924807999998 353.96289070000006 420.8344729999998 352.9033203000001 419.7753909999998 C 351.8486328000001 418.7207034999998 350.3925781000001 418.0678714999998 348.7871094000001 418.0678714999998 C 347.1826172000001 418.0678714999998 345.7246094000001 418.7236331999998 344.6660156000001 419.7832034999998 C 344.0361328000001 420.4135745999998 343.5498047000001 421.1865237999998 343.2597656000001 422.04931679999976 L 321.2851562000001 422.04931679999976 L 311.3095703000001 412.07373089999976 L 296.28369140000007 412.07373089999976 L 303.7597656000001 399.1254886999998 L 333.1357422000001 399.1254886999998 C 333.4257813000001 399.98779339999976 333.9121094000001 400.7607425999998 334.5419922000001 401.39160199999975 C 335.6005860000001 402.45068399999974 337.0595703000001 403.10644579999973 338.6630860000001 403.10644579999973 C 340.26855480000006 403.10644579999973 341.7246094000001 402.45410199999975 342.7792969000001 401.39941449999975 C 343.8388672000001 400.33984419999973 344.4951172000001 398.88183639999977 344.4951172000001 397.27685589999976 C 344.4951172000001 395.6713870999998 343.8388672000001 394.2138675999998 342.7792969000001 393.15380899999974 C 341.7246094000001 392.09912149999974 340.2685547000001 391.44677769999976 338.6630860000001 391.44677769999976 C 337.0595704000001 391.44677769999976 335.6005860000001 392.1025393999998 334.5419922000001 393.16162149999974 C 333.9121094000001 393.79199259999973 333.4257813000001 394.56543009999973 333.1357422000001 395.42822309999974 L 301.6435547000001 395.42822309999974 L 292.0327149000001 412.07373089999976 L 289.61914070000006 412.07373089999976 L 280.23876960000007 412.07373089999976 L 270.26220710000007 412.07373089999976 L 259.81884770000005 430.11181679999976 L 244.66308600000005 430.11181679999976 C 244.37255870000004 430.9760745999998 243.88330080000006 431.75244179999976 243.24951180000005 432.38525429999976 C 242.19433600000005 433.43994179999976 240.73876960000004 434.0932620999998 239.13330090000005 434.0932620999998 C 237.52929700000004 434.0932620999998 236.07128920000005 433.4370120999998 235.01269540000004 432.37744179999976 C 233.95751960000004 431.32275429999976 233.30517590000005 429.8676761999998 233.30517590000005 428.26318399999974 C 233.30517590000005 426.6586917999997 233.95751970000006 425.2036136999997 235.01269540000004 424.1479495999997 C 236.07128920000005 423.0883792999997 237.52929700000004 422.43310579999974 239.13330090000005 422.43310579999974 C 240.73876970000006 422.43310579999974 242.19433610000004 423.0854495999997 243.24951180000005 424.1401370999997 C 243.88330090000005 424.7739261999997 244.37255870000004 425.5493167999997 244.66308600000005 426.4145511999997 L 257.69775400000003 426.4145511999997 L 266.00048840000005 412.0737308999997 L 249.60791030000004 412.0737308999997 C 249.31689470000003 412.9379886999997 248.82812510000005 413.71386759999973 248.19433610000004 414.3471683999997 C 247.13916030000004 415.4023441999997 245.68359390000003 416.0546878999997 244.07812520000004 416.0546878999997 C 242.47412130000004 416.0546878999997 241.01611350000005 415.3994144999997 239.95751970000003 414.3398440999997 C 238.90234390000003 413.28466829999974 238.25000020000004 411.8295901999997 238.25000020000004 410.2250979999997 C 238.25000020000004 408.62060579999974 238.90234400000006 407.1655276999997 239.95751970000003 406.1098635999997 C 241.01611350000005 405.0507815999997 242.47412130000004 404.3950197999997 244.07812520000004 404.3950197999997 C 245.68359400000006 404.3950197999997 247.13916040000004 405.0478517999997 248.19433610000004 406.1025392999997 C 248.82812520000004 406.7358400999997 249.31689470000003 407.5117189999997 249.60791030000004 408.3759767999997 L 279.81835950000004 408.3759767999997 C 278.7734376 398.8798829999997 278.00830090000005 389.3120119999997 277.9062501 380.3393556999997 L 314.9335939 380.3393556999997 C 315.223633 381.2050783999997 315.7109377 381.9809572999997 316.341797 382.6127931999997 C 317.3974611 383.6674806999997 318.8544923 384.3203126999997 320.4638673 384.3203126999997 C 322.0673829 384.3203126999997 323.5244142 383.6660157999997 324.5830079 382.6083985999997 L 324.58691419999997 382.6127930999997 C 325.64160169999997 381.5576172999997 326.29394549999995 380.0996094999997 326.29394549999995 378.4902344999997 C 326.29394549999995 376.8896485999997 325.64160169999997 375.4340821999997 324.58691419999997 374.3754883999997 L 324.57910169999997 374.3681641999997 C 323.5205079 373.3129883999997 322.06542979999995 372.6606446999997 320.46386729999995 372.6606446999997 C 318.85449229999995 372.6606446999997 317.39746099999996 373.3129884999997 316.34179699999993 374.3681641999997 L 316.3457032999999 374.37207049999967 C 315.7138673999999 375.0043946999997 315.22656269999993 375.77880879999964 314.93652359999993 376.64160179999965 L 294.49609389999995 376.64160179999965 L 302.74218769999993 362.36035179999965 L 331.34472679999993 362.36035179999965 C 331.63378929999993 363.22656269999965 332.1210939999999 364.00244159999966 332.7529298999999 364.6333009999997 C 333.8076173999999 365.68847679999965 335.26562519999993 366.3413087999997 336.87500019999993 366.3413087999997 C 338.47753929999993 366.3413087999997 339.93457049999995 365.6870118999997 340.99316429999993 364.6298829999997 L 340.9970705999999 364.63330099999973 C 342.0517580999999 363.57861349999973 342.7041018999999 362.12109399999974 342.7041018999999 360.5112306999997 C 342.7041018999999 358.9106447999997 342.0517580999999 357.4550783999997 340.9970705999999 356.3964845999997 L 340.9892580999999 356.3896486999997 C 339.93066429999993 355.33447289999975 338.4755861999999 354.6816408999997 336.8750002999999 354.6816408999997 C 335.2656252999999 354.6816408999997 333.8076174999999 355.3344728999997 332.7529299999999 356.3896486999997 L 332.75585969999986 356.39306669999974 C 332.12500029999984 357.02587919999974 331.6367190999999 357.80029329999974 331.3466799999999 358.6630861999997 L 300.6181643999999 358.6630861999997 L 290.2373049999999 376.6416017999997 L 286.7700197999999 376.6416017999997 L 277.9038088999999 376.6416017999997 L 268.2080080999999 376.6416017999997 L 259.54101589999993 391.6533205999997 L 249.27734399999994 391.6533205999997 C 248.98632839999993 392.5180666999997 248.49755879999995 393.2939455999997 247.86328149999994 393.92724639999966 C 246.80859399999994 394.98193389999966 245.35302759999993 395.63476589999965 243.74707059999994 395.63476589999965 C 242.14306669999993 395.63476589999965 240.68554719999995 394.9790041999996 239.62646509999993 393.91943389999966 C 238.57177759999993 392.8642580999997 237.91894559999994 391.40917999999965 237.91894559999994 389.80517609999964 C 237.91894559999994 388.20068389999966 238.57177759999993 386.74511749999965 239.62646509999993 385.6899416999996 C 240.68554709999992 384.6303713999996 242.14306669999993 383.97509789999964 243.74707059999994 383.97509789999964 C 245.35302759999993 383.97509789999964 246.80859399999994 384.6274416999996 247.86328149999994 385.6821291999996 C 248.49755879999995 386.3159182999996 248.98632839999993 387.09179719999963 249.27734399999994 387.9560549999996 L 257.42529319999994 387.9560549999996 L 263.95751979999994 376.6416018999996 L 242.081543 376.6416018999996 C 241.7910157 377.5063479999996 241.30175780000002 378.2822268999996 240.6679688 378.9155276999996 C 239.612793 379.9702151999996 238.1572266 380.6230471999996 236.55224610000002 380.6230471999996 C 234.9477539 380.6230471999996 233.48974610000002 379.96728549999955 232.4311523 378.9082033999996 C 231.3764648 377.8525392999996 230.72363280000002 376.3974611999996 230.72363280000002 374.7929689999996 C 230.72363280000002 373.18847679999953 231.3764648 371.73339869999955 232.4311523 370.6782228999996 C 233.48974610000002 369.61865259999956 234.9477539 368.9633790999996 236.55224610000002 368.9633790999996 C 238.15722660000003 368.9633790999996 239.612793 369.6157228999996 240.6679688 370.6704103999996 C 241.3017579 371.3041994999996 241.7910157 372.07959009999956 242.081543 372.94433619999955 L 269.76611330000003 372.94433619999955 L 263.2338867 361.6298830999996 L 258.90380860000005 361.6298830999996 C 258.61279300000007 362.49462919999957 258.12353520000005 363.2705080999996 257.4902344 363.90380889999955 C 256.43505860000005 364.95849639999955 254.9794922 365.61132839999954 253.37402350000002 365.61132839999954 C 251.7700196 365.61132839999954 250.31201180000002 364.9555666999995 249.2529297 363.89599639999955 C 248.1982422 362.8408205999996 247.5458984 361.38574249999954 247.5458984 359.78125029999956 C 247.5458984 358.17626979999955 248.1982422 356.72167999999954 249.2529297 355.66650419999957 C 250.3120117 354.60693389999955 251.77001950000002 353.9511721999996 253.37402350000002 353.9511721999996 C 254.97949230000003 353.9511721999996 256.4350587 354.60400419999957 257.4902344 355.65869169999957 C 258.1235352 356.29199249999954 258.612793 357.06787139999955 258.90380860000005 357.93261749999954 L 265.34912110000005 357.93261749999954 L 274.01660160000006 372.9443362999995 L 277.98632820000006 372.9443362999995 C 278.8032227 349.5649414 285.3359375 332.0048828 305.3457031 333.8081055 L 305.3457031 333.8081055 z M 286.0200195 336.0849609 C 250.4570312 338.68701169999997 224.5146484 359.6079101 221.87451169999997 394.883789 C 218.07666009999997 445.6420898 260.86669919999997 442.99951169999997 260.86669919999997 507.73291009999997 C 255.33740229999998 509.77490229999995 249.69726559999998 509.81787099999997 243.93896479999998 507.73291009999997 C 256.0917968 449.0512695 211.3793945 451.03076169999997 216.3940429 393.03515619999996 C 219.5830077 356.1425781 249.74999989999998 333.03173819999995 290.0371093 332.89013669999997 C 288.565918 333.7739258 287.2299805 334.8447266 286.0200195 336.0849609 L 286.0200195 336.0849609 z M 254.890625 358.2724609 C 254.5053711 357.887207 253.96875 357.6489257 253.3740234 357.6489257 C 252.7807617 357.6489257 252.2480468 357.8847655 251.8671875 358.26562490000003 C 251.4814453 358.6513671 251.2431641 359.18749990000003 251.2431641 359.78124990000003 C 251.2431641 360.3754882 251.4814454 360.91113270000005 251.8671875 361.29638660000006 C 252.2480469 361.67773430000005 252.7807617 361.91357410000006 253.3740234 361.91357410000006 C 253.96875 361.91357410000006 254.5053711 361.6748046000001 254.890625 361.29003890000007 C 255.2719727 360.9086912000001 255.5083008 360.37499980000007 255.5083008 359.78124980000007 C 255.5083008 359.18749980000007 255.2719727 358.6538086 254.890625 358.2724609 L 254.890625 358.2724609 z M 238.0688477 373.284668 C 237.68310549999998 372.89892580000003 237.1469727 372.6606446 236.5522461 372.6606446 C 235.9589844 372.6606446 235.42578129999998 372.8964844 235.0449219 373.2778321 C 234.65966799999998 373.663086 234.4208985 374.19921880000004 234.4208985 374.79296880000004 C 234.4208985 375.3872071 234.65966799999998 375.92285160000006 235.0449219 376.30810550000007 C 235.42578129999998 376.68945320000006 235.9589844 376.92529300000007 236.5522461 376.92529300000007 C 237.1469727 376.92529300000007 237.68310549999998 376.6865235000001 238.0688477 376.30126960000007 C 238.44970709999998 375.92041020000005 238.6860352 375.3867188000001 238.6860352 374.7929688000001 C 238.6860352 374.1992188000001 238.449707 373.6655273 238.0688477 373.284668 L 238.0688477 373.284668 z M 245.2641602 388.2963867 C 244.87841799999998 387.91064450000005 244.3422852 387.67236330000003 243.74707039999998 387.67236330000003 C 243.15429699999999 387.67236330000003 242.62158209999998 387.90820310000004 242.24023449999999 388.28955080000003 C 241.85498059999998 388.67480470000004 241.6166993 389.21093750000006 241.6166993 389.80517580000003 C 241.6166993 390.39892580000003 241.8549806 390.93505860000005 242.24023449999999 391.3198242 C 242.62158219999998 391.7011719 243.15429699999999 391.9375 243.74707039999998 391.9375 C 244.3422852 391.9375 244.87841809999998 391.6987305 245.2641602 391.3129883 C 245.64550789999998 390.93212889999995 245.8813477 390.3989258 245.8813477 389.8051758 C 245.8813477 389.2109375 245.6455078 388.6777344 245.2641602 388.2963867 L 245.2641602 388.2963867 z M 245.5947266 408.7163086 C 245.2094727 408.3310547 244.6733399 408.0922852 244.078125 408.0922852 C 243.4848633 408.0922852 242.9521484 408.3286133 242.5712891 408.70996099999996 C 242.1860352 409.0952149 241.9472657 409.63085939999996 241.9472657 410.2250977 C 241.9472657 410.8188477 242.1860352 411.3549805 242.5712891 411.7402344 C 242.9521485 412.1215821 243.4848633 412.3574219 244.078125 412.3574219 C 244.6733398 412.3574219 245.2094727 412.11865240000003 245.5947266 411.7333985 C 245.9760743 411.35205080000003 246.2124024 410.81884770000005 246.2124024 410.22509770000005 C 246.2124023 409.6308594 245.9760742 409.0976563 245.5947266 408.7163086 L 245.5947266 408.7163086 z M 240.6503906 426.7543945 C 240.2646484 426.3686523 239.7285156 426.1303711 239.1333008 426.1303711 C 238.5405274 426.1303711 238.0073242 426.36669919999997 237.6264649 426.7475586 C 237.241211 427.1333008 237.0024415 427.668457 237.0024415 428.2631836 C 237.0024415 428.8569336 237.241211 429.3930664 237.6264649 429.777832 C 238.0073243 430.1596679 238.5405274 430.3950195 239.1333008 430.3950195 C 239.7285156 430.3950195 240.2646485 430.1567382 240.6503906 429.7709961 C 241.03125 429.39013669999997 241.2675781 428.8569336 241.2675781 428.2631836 C 241.2675781 427.6694336 241.03125 427.1352539 240.6503906 426.7543945 L 240.6503906 426.7543945 z M 262.3203125 443.2817383 C 261.9350586 442.8959961 261.3984375 442.6577149 260.8037109 442.6577149 C 260.21044919999997 442.6577149 259.6777343 442.89404299999995 259.296875 443.2749024 C 258.9116211 443.66064459999996 258.6728516 444.1958008 258.6728516 444.7905274 C 258.6728516 445.3842774 258.9116211 445.9204102 259.296875 446.3051758 C 259.6777344 446.68701169999997 260.2104492 446.9223633 260.8037109 446.9223633 C 261.3984375 446.9223633 261.9350586 446.684082 262.3203125 446.2983399 C 262.7016602 445.91748049999995 262.9379883 445.3842774 262.9379883 444.7905274 C 262.9379883 444.1967774 262.7016602 443.6625977 262.3203125 443.2817383 L 262.3203125 443.2817383 z M 343.5439453 463.8012695 C 343.15820310000004 463.4165039 342.6220703 463.1772461 342.0273437 463.1772461 C 341.4335937 463.1772461 340.9013671 463.41357419999997 340.5205078 463.7944336 C 340.13476560000004 464.1801758 339.8964844 464.7163086 339.8964844 465.3100586 C 339.8964844 465.9038086 340.1347657 466.4399414 340.5205078 466.824707 C 340.90136720000004 467.2065429 341.4335937 467.4428711 342.0273437 467.4428711 C 342.6220703 467.4428711 343.15820310000004 467.2036133 343.5439453 466.8178711 C 343.9257812 466.43701169999997 344.1611328 465.9038086 344.1611328 465.3100586 C 344.1611328 464.7163086 343.9257813 464.1831055 343.5439453 463.8012695 L 343.5439453 463.8012695 z M 356.7841797 446.9790039 C 356.3994141 446.5932617 355.8623047 446.3549805 355.2675781 446.3549805 C 354.6748047 446.3549805 354.1416015 446.5913086 353.7607422 446.972168 C 353.375 447.3579102 353.1367188 447.894043 353.1367188 448.487793 C 353.1367188 449.081543 353.37500009999997 449.61767580000003 353.7607422 450.0024414 C 354.1416016 450.3842773 354.6748047 450.6206055 355.2675781 450.6206055 C 355.8623047 450.6206055 356.399414 450.3813477 356.7841797 449.9956055 C 357.1660156 449.6147461 357.4023438 449.081543 357.4023438 448.487793 C 357.4023438 447.894043 357.1660156 447.3608398 356.7841797 446.9790039 L 356.7841797 446.9790039 z M 350.3037109 422.3891602 C 349.9179687 422.0043946 349.3818359 421.7651368 348.7871093 421.7651368 C 348.1943359 421.7651368 347.6611327 422.0014649 347.2802734 422.3823243 C 346.8945312 422.7680665 346.65625 423.3032227 346.65625 423.8979493 C 346.65625 424.4916993 346.8945313 425.0278321 347.2802734 425.4135743 C 347.6611328 425.7944337 348.1943359 426.0307618 348.7871093 426.0307618 C 349.3818359 426.0307618 349.9179687 425.791504 350.3037109 425.4067384 C 350.6855468 425.0249025 350.9208984 424.4916993 350.9208984 423.8979493 C 350.9208984 423.3041993 350.6855469 422.7700195 350.3037109 422.3891602 L 350.3037109 422.3891602 z M 340.1796875 395.7680664 C 339.7939453 395.3828125 339.2578125 395.144043 338.6630859 395.144043 C 338.0703125 395.144043 337.5371093 395.3798828 337.15625 395.7612305 C 336.7705078 396.1464844 336.5322266 396.68261720000004 336.5322266 397.2768555 C 336.5322266 397.8706055 336.7705079 398.40673830000003 337.15625 398.79199220000004 C 337.5371094 399.17333990000003 338.0703125 399.40917970000004 338.6630859 399.40917970000004 C 339.2578125 399.40917970000004 339.7939453 399.17041020000005 340.1796875 398.78515630000004 C 340.5615234 398.40380860000005 340.796875 397.87060550000007 340.796875 397.27685550000007 C 340.796875 396.6826172 340.5615234 396.1494141 340.1796875 395.7680664 L 340.1796875 395.7680664 z M 321.9726563 376.9750977 C 321.5908204 376.59375 321.0576172 376.3579102 320.4638672 376.3579102 C 319.875 376.3579102 319.34179689999996 376.5966797 318.9560547 376.9824219 L 318.9492188 376.9824219 C 318.56835939999996 377.3637696 318.3320313 377.8964844 318.3320313 378.4902344 C 318.3320313 379.07958990000003 318.57031259999997 379.612793 318.9560547 379.9985352 C 319.3417968 380.3842774 319.875 380.6230469 320.4638672 380.6230469 C 321.0576172 380.6230469 321.59082029999996 380.38671880000004 321.9726563 380.00537110000005 L 321.9726563 379.99853520000005 C 322.35839849999996 379.61279300000007 322.5966797 379.07958990000003 322.5966797 378.4902344000001 C 322.5966797 377.8964844000001 322.3603516 377.36376960000007 321.9794922 376.9824219000001 L 321.9726563 376.9750977 L 321.9726563 376.9750977 z M 338.3828125 358.9960938 C 338.0009766 358.61523439999996 337.4677734 358.3789063 336.875 358.3789063 C 336.2861328 358.3789063 335.7529297 358.6176758 335.3662109 359.003418 L 335.359375 359.003418 C 334.9775391 359.3847657 334.7421875 359.9179688 334.7421875 360.5112305 C 334.7421875 361.100586 334.9804688 361.6337891 335.3662109 362.0195313 C 335.7529297 362.4057618 336.2861328 362.644043 336.875 362.644043 C 337.4677734 362.644043 338.0009766 362.4082032 338.3828125 362.0268555 L 338.3828125 362.0195313 C 338.7685547 361.6337891 339.0068359 361.10058599999996 339.0068359 360.5112305 C 339.0068359 359.9179688 338.7714843 359.3847657 338.3896484 359.003418 L 338.3828125 358.9960938 L 338.3828125 358.9960938 z" stroke-linecap="round" />
</g>
</g>
</g>
<g transform="matrix(1.9211538461538462 0 0 1.9211538461538462 635.0203692307692 734.6679949832671)" id="text-logo"  >
<g style=""  paint-order="stroke"   >
		<g transform="matrix(1 0 0 1 0 0)" id="text-logo-path-0"  >
<path style="stroke: none; stroke-width: 0; stroke-dasharray: none; stroke-linecap: butt; stroke-dashoffset: 0; stroke-linejoin: miter; stroke-miterlimit: 4; fill: rgb(0,0,0); fill-rule: nonzero; opacity: 1;"  paint-order="stroke"  transform=" translate(-229.51696159295543, 21.305)" d="M 30.4 -1.3 L 18.52 -37.58 L 6.7 -1.3 L 6.7 -1.35 Q 6.37 -0.54 5.8 -0.03 Q 5.24 0.49 4.43 0.49 L 4.43 0.49 Q 4 0.49 3.59 0.4 Q 3.19 0.32 2.75 0.22 L 2.75 0.22 L 2.81 0.22 Q -0.27 -0.76 0.54 -3.24 L 0.54 -3.24 L 12.85 -40.66 Q 13.12 -41.53 13.8 -42.12 Q 14.47 -42.71 15.39 -42.82 L 15.39 -42.82 Q 16.31 -42.98 17.17 -43.06 Q 18.04 -43.15 18.52 -43.15 L 18.52 -43.15 Q 19.01 -43.15 19.87 -43.06 Q 20.74 -42.98 21.65 -42.88 L 21.65 -42.88 Q 22.41 -42.77 23.14 -42.07 Q 23.87 -41.36 24.25 -40.66 L 24.25 -40.66 Q 27.27 -31.37 30.38 -21.95 Q 33.48 -12.53 36.5 -3.24 L 36.5 -3.24 Q 37.26 -0.76 34.24 0.22 L 34.24 0.22 Q 33.8 0.32 33.45 0.4 Q 33.1 0.49 32.67 0.49 L 32.67 0.49 Q 31.91 0.49 31.29 -0.03 Q 30.67 -0.54 30.4 -1.35 L 30.4 -1.35 L 30.4 -1.3 Z M 22.57 -12.96 L 22.57 -12.96 Q 22.57 -11.23 21.36 -10.02 Q 20.14 -8.8 18.41 -8.8 L 18.41 -8.8 Q 16.69 -8.8 15.5 -10.02 Q 14.31 -11.23 14.31 -12.96 L 14.31 -12.96 Q 14.31 -14.69 15.5 -15.9 Q 16.69 -17.12 18.41 -17.12 L 18.41 -17.12 Q 20.14 -17.12 21.36 -15.9 Q 22.57 -14.69 22.57 -12.96 Z M 53.41 -40.55 L 53.41 -2.27 Q 53.41 0.32 50.17 0.32 L 50.17 0.32 Q 46.98 0.32 46.98 -2.27 L 46.98 -2.27 L 46.98 -40.55 Q 46.98 -43.15 50.17 -43.15 L 50.17 -43.15 Q 53.41 -43.15 53.41 -40.55 L 53.41 -40.55 Z M 95.47 -37.42 L 95.47 -2.27 Q 95.47 0.32 92.29 0.32 L 92.29 0.32 Q 89.1 0.32 89.1 -2.27 L 89.1 -2.27 L 89.1 -39.64 Q 89.1 -40.88 89.8 -41.88 Q 90.5 -42.88 92.5 -42.88 L 92.5 -42.88 L 110.86 -42.88 Q 112.81 -42.88 112.91 -40.18 L 112.91 -40.18 Q 113.02 -37.42 110.86 -37.42 L 110.86 -37.42 L 95.47 -37.42 Z M 109.3 -22.3 L 109.3 -22.3 Q 109.3 -21.38 108.94 -20.55 Q 108.59 -19.71 107.97 -19.12 Q 107.35 -18.52 106.54 -18.17 Q 105.73 -17.82 104.76 -17.82 L 104.76 -17.82 Q 102.92 -17.82 101.63 -19.12 Q 100.33 -20.41 100.33 -22.3 L 100.33 -22.3 Q 100.33 -24.19 101.63 -25.49 Q 102.92 -26.78 104.76 -26.78 L 104.76 -26.78 Q 105.73 -26.78 106.54 -26.43 Q 107.35 -26.08 107.97 -25.46 Q 108.59 -24.84 108.94 -24.03 Q 109.3 -23.22 109.3 -22.3 Z M 132.84 -42.88 L 144.61 -42.88 Q 146.02 -42.88 147.53 -42.28 Q 149.04 -41.69 150.44 -40.77 L 150.44 -40.77 L 150.39 -40.77 Q 151.79 -39.74 152.55 -38.1 Q 153.31 -36.45 153.31 -34.29 L 153.31 -34.29 L 153.31 -8.64 Q 153.31 -4.27 150.39 -2.11 L 150.39 -2.11 Q 148.99 -1.08 147.5 -0.51 Q 146.02 0.05 144.61 0.05 L 144.61 0.05 L 132.84 0.05 Q 131.44 0.05 129.95 -0.51 Q 128.47 -1.08 127.06 -2.11 L 127.06 -2.11 Q 125.66 -3.19 124.9 -4.78 Q 124.15 -6.37 124.15 -8.64 L 124.15 -8.64 L 124.15 -34.29 Q 124.15 -36.45 124.9 -38.1 Q 125.66 -39.74 127.06 -40.77 L 127.06 -40.77 L 127.01 -40.77 Q 128.41 -41.69 129.92 -42.28 Q 131.44 -42.88 132.84 -42.88 L 132.84 -42.88 Z M 134.19 -5.4 L 143.26 -5.4 Q 145.26 -5.4 146.07 -6.53 Q 146.88 -7.67 146.88 -9.07 L 146.88 -9.07 L 146.88 -33.8 Q 146.88 -35.15 146.07 -36.29 Q 145.26 -37.42 143.26 -37.42 L 143.26 -37.42 L 134.19 -37.42 Q 132.19 -37.42 131.38 -36.29 Q 130.57 -35.15 130.57 -33.8 L 130.57 -33.8 L 130.57 -9.07 Q 130.57 -7.67 131.38 -6.53 Q 132.19 -5.4 134.19 -5.4 L 134.19 -5.4 Z M 192.35 -0.65 L 182.14 -17.77 L 177.98 -17.77 Q 177.07 -17.77 176.55 -18.5 Q 176.04 -19.22 176.04 -20.47 L 176.04 -20.47 Q 176.04 -23.22 178.31 -23.22 L 178.31 -23.22 L 184.63 -23.22 Q 186.62 -23.22 187.43 -24.35 Q 188.24 -25.49 188.24 -26.84 L 188.24 -26.84 L 188.24 -33.8 Q 188.24 -35.15 187.43 -36.29 Q 186.62 -37.42 184.63 -37.42 L 184.63 -37.42 L 173.23 -37.42 L 173.23 -2.21 Q 173.23 0.38 170.05 0.38 L 170.05 0.38 Q 166.86 0.38 166.86 -2.21 L 166.86 -2.21 L 166.86 -39.64 Q 166.86 -41.58 167.86 -42.23 Q 168.86 -42.88 170.26 -42.88 L 170.26 -42.88 L 185.98 -42.88 Q 187.38 -42.88 188.89 -42.28 Q 190.4 -41.69 191.81 -40.77 L 191.81 -40.77 L 191.75 -40.77 Q 193.16 -39.74 193.91 -38.1 Q 194.67 -36.45 194.67 -34.29 L 194.67 -34.29 L 194.67 -26.41 Q 194.67 -22.03 191.75 -19.87 L 191.75 -19.87 Q 191.16 -19.44 190.49 -19.06 Q 189.81 -18.68 189.11 -18.31 L 189.11 -18.31 L 197.75 -4.05 Q 197.91 -3.78 198.07 -3.35 Q 198.23 -2.92 198.23 -2.65 L 198.23 -2.65 Q 198.23 -1.35 196.4 -0.16 L 196.4 -0.16 L 196.4 -0.22 Q 195.16 0.54 194.29 0.54 L 194.29 0.54 Q 193.05 0.54 192.29 -0.7 L 192.29 -0.7 L 192.35 -0.65 Z M 231.88 0.05 L 212.11 0.05 Q 210.11 0.05 209.41 -0.97 Q 208.71 -2 208.71 -3.24 L 208.71 -3.24 L 208.71 -39.64 Q 208.71 -40.88 209.41 -41.88 Q 210.11 -42.88 212.11 -42.88 L 212.11 -42.88 L 230.9 -42.88 Q 232.9 -42.88 233.01 -40.18 L 233.01 -40.18 Q 233.12 -37.42 230.9 -37.42 L 230.9 -37.42 L 215.08 -37.42 L 215.08 -5.4 L 231.88 -5.4 Q 233.87 -5.4 233.93 -2.75 L 233.93 -2.75 Q 234.04 0.05 231.88 0.05 L 231.88 0.05 Z M 228.91 -22.3 L 228.91 -22.3 Q 228.91 -20.41 227.58 -19.12 Q 226.26 -17.82 224.37 -17.82 L 224.37 -17.82 Q 222.53 -17.82 221.24 -19.12 Q 219.94 -20.41 219.94 -22.3 L 219.94 -22.3 Q 219.94 -24.19 221.24 -25.49 Q 222.53 -26.78 224.37 -26.78 L 224.37 -26.78 Q 226.26 -26.78 227.58 -25.49 Q 228.91 -24.19 228.91 -22.3 Z M 255.2 -24.68 L 265.63 -24.68 Q 267.03 -24.68 268.54 -24.08 Q 270.05 -23.49 271.46 -22.52 L 271.46 -22.52 L 271.4 -22.52 Q 272.81 -21.55 273.56 -19.87 Q 274.32 -18.2 274.32 -16.04 L 274.32 -16.04 L 274.32 -8.64 Q 274.32 -4.27 271.4 -2.11 L 271.4 -2.11 Q 270 -1.08 268.52 -0.51 Q 267.03 0.05 265.63 0.05 L 265.63 0.05 L 253.85 0.05 Q 252.45 0.05 250.97 -0.51 Q 249.48 -1.08 248.08 -2.11 L 248.08 -2.11 Q 245.16 -4.27 245.16 -8.64 L 245.16 -8.64 L 245.16 -12.2 Q 245.16 -14.74 248.35 -14.74 L 248.35 -14.74 Q 251.59 -14.74 251.59 -12.2 L 251.59 -12.2 L 251.59 -9.07 Q 251.59 -7.67 252.4 -6.53 Q 253.21 -5.4 255.2 -5.4 L 255.2 -5.4 L 264.28 -5.4 Q 266.27 -5.4 267.08 -6.53 Q 267.89 -7.67 267.89 -9.07 L 267.89 -9.07 L 267.89 -15.61 Q 267.89 -16.96 267.08 -18.12 Q 266.27 -19.28 264.28 -19.28 L 264.28 -19.28 L 253.85 -19.28 Q 251.05 -19.28 248.08 -21.33 L 248.08 -21.33 Q 245.16 -23.6 245.16 -27.86 L 245.16 -27.86 L 245.16 -34.29 Q 245.16 -36.45 245.92 -38.1 Q 246.67 -39.74 248.08 -40.77 L 248.08 -40.77 L 248.02 -40.77 Q 249.43 -41.69 250.94 -42.28 Q 252.45 -42.88 253.85 -42.88 L 253.85 -42.88 L 265.63 -42.88 Q 267.03 -42.88 268.54 -42.28 Q 270.05 -41.69 271.46 -40.77 L 271.46 -40.77 L 271.4 -40.77 Q 272.81 -39.74 273.56 -38.1 Q 274.32 -36.45 274.32 -34.29 L 274.32 -34.29 L 274.32 -31.1 Q 274.32 -28.57 271.08 -28.57 L 271.08 -28.57 Q 267.89 -28.57 267.89 -31.1 L 267.89 -31.1 L 267.89 -33.8 Q 267.89 -35.15 267.08 -36.29 Q 266.27 -37.42 264.28 -37.42 L 264.28 -37.42 L 255.2 -37.42 Q 253.21 -37.42 252.4 -36.29 Q 251.59 -35.15 251.59 -33.8 L 251.59 -33.8 L 251.59 -28.3 Q 251.59 -26.89 252.4 -25.79 Q 253.21 -24.68 255.2 -24.68 L 255.2 -24.68 Z M 294.84 -40.55 L 294.84 -2.27 Q 294.84 0.32 291.6 0.32 L 291.6 0.32 Q 288.41 0.32 288.41 -2.27 L 288.41 -2.27 L 288.41 -40.55 Q 288.41 -43.15 291.6 -43.15 L 291.6 -43.15 Q 294.84 -43.15 294.84 -40.55 L 294.84 -40.55 Z M 331.07 -9.07 L 331.07 -19.49 Q 331.07 -22.14 334.31 -22.14 L 334.31 -22.14 Q 337.5 -22.14 337.5 -19.6 L 337.5 -19.6 L 337.5 -8.64 Q 337.5 -4.27 334.58 -2.11 L 334.58 -2.11 Q 333.18 -1.08 331.69 -0.51 Q 330.21 0.05 328.81 0.05 L 328.81 0.05 L 317.57 0.05 Q 316.17 0.05 314.69 -0.51 Q 313.2 -1.08 311.8 -2.11 L 311.8 -2.11 Q 310.39 -3.19 309.64 -4.78 Q 308.88 -6.37 308.88 -8.64 L 308.88 -8.64 L 308.88 -34.29 Q 308.88 -36.5 309.66 -38.12 Q 310.45 -39.74 311.8 -40.77 L 311.8 -40.77 L 311.74 -40.77 Q 313.15 -41.69 314.66 -42.28 Q 316.17 -42.88 317.57 -42.88 L 317.57 -42.88 L 328.27 -42.88 Q 329.67 -42.88 331.18 -42.28 Q 332.69 -41.69 334.1 -40.77 L 334.1 -40.77 L 334.04 -40.77 Q 336.91 -38.66 336.91 -34.29 L 336.91 -34.29 L 336.91 -30.56 Q 336.91 -27.97 333.72 -27.97 L 333.72 -27.97 Q 330.53 -27.97 330.53 -30.56 L 330.53 -30.56 L 330.53 -33.8 Q 330.53 -35.15 329.72 -36.29 Q 328.91 -37.42 326.92 -37.42 L 326.92 -37.42 L 318.98 -37.42 Q 316.93 -37.42 316.12 -36.29 Q 315.31 -35.15 315.31 -33.8 L 315.31 -33.8 L 315.31 -9.07 Q 315.31 -8.37 315.5 -7.72 Q 315.68 -7.07 316.12 -6.56 Q 316.55 -6.05 317.25 -5.72 Q 317.95 -5.4 318.98 -5.4 L 318.98 -5.4 L 327.46 -5.4 Q 329.45 -5.4 330.26 -6.53 Q 331.07 -7.67 331.07 -9.07 L 331.07 -9.07 Z M 328.54 -20.09 L 328.54 -20.09 Q 328.54 -19.17 328.19 -18.33 Q 327.83 -17.5 327.21 -16.9 Q 326.59 -16.31 325.78 -15.96 Q 324.97 -15.61 324 -15.61 L 324 -15.61 Q 322.16 -15.61 320.87 -16.9 Q 319.57 -18.2 319.57 -20.09 L 319.57 -20.09 Q 319.57 -21.92 320.87 -23.22 Q 322.16 -24.52 324 -24.52 L 324 -24.52 Q 324.97 -24.52 325.78 -24.16 Q 326.59 -23.81 327.21 -23.22 Q 327.83 -22.63 328.19 -21.82 Q 328.54 -21.01 328.54 -20.09 Z M 374.06 -2.27 L 374.06 -40.55 Q 374.06 -43.15 377.24 -43.15 L 377.24 -43.15 Q 380.48 -43.15 380.48 -40.55 L 380.48 -40.55 L 380.48 -2.27 Q 380.48 0.32 377.24 0.32 L 377.24 0.32 Q 374.06 0.32 374.06 -2.27 L 374.06 -2.27 Z M 357.64 -40.55 L 357.64 -2.27 Q 357.64 0.32 354.4 0.32 L 354.4 0.32 Q 351.22 0.32 351.22 -2.27 L 351.22 -2.27 L 351.22 -40.55 Q 351.22 -43.15 354.4 -43.15 L 354.4 -43.15 Q 357.64 -43.15 357.64 -40.55 L 357.64 -40.55 Z M 370.28 -22.3 L 370.28 -22.3 Q 370.28 -20.41 368.98 -19.12 Q 367.69 -17.82 365.8 -17.82 L 365.8 -17.82 Q 363.96 -17.82 362.66 -19.12 Q 361.37 -20.41 361.37 -22.3 L 361.37 -22.3 Q 361.37 -24.19 362.66 -25.49 Q 363.96 -26.78 365.8 -26.78 L 365.8 -26.78 Q 367.69 -26.78 368.98 -25.49 Q 370.28 -24.19 370.28 -22.3 Z M 408.19 -37.42 L 408.19 -2.16 Q 408.19 0.43 404.95 0.43 L 404.95 0.43 Q 401.76 0.43 401.76 -2.16 L 401.76 -2.16 L 401.76 -37.42 L 392.31 -37.42 Q 390.37 -37.42 390.26 -40.18 L 390.26 -40.18 Q 390.26 -42.88 392.31 -42.88 L 392.31 -42.88 L 417.64 -42.88 Q 419.69 -42.88 419.58 -40.18 L 419.58 -40.18 Q 419.58 -37.42 417.64 -37.42 L 417.64 -37.42 L 408.19 -37.42 Z M 439.83 -24.68 L 450.25 -24.68 Q 451.66 -24.68 453.17 -24.08 Q 454.68 -23.49 456.08 -22.52 L 456.08 -22.52 L 456.03 -22.52 Q 457.43 -21.55 458.19 -19.87 Q 458.95 -18.2 458.95 -16.04 L 458.95 -16.04 L 458.95 -8.64 Q 458.95 -4.27 456.03 -2.11 L 456.03 -2.11 Q 454.63 -1.08 453.14 -0.51 Q 451.66 0.05 450.25 0.05 L 450.25 0.05 L 438.48 0.05 Q 437.08 0.05 435.59 -0.51 Q 434.11 -1.08 432.7 -2.11 L 432.7 -2.11 Q 429.79 -4.27 429.79 -8.64 L 429.79 -8.64 L 429.79 -12.2 Q 429.79 -14.74 432.97 -14.74 L 432.97 -14.74 Q 436.21 -14.74 436.21 -12.2 L 436.21 -12.2 L 436.21 -9.07 Q 436.21 -7.67 437.02 -6.53 Q 437.83 -5.4 439.83 -5.4 L 439.83 -5.4 L 448.9 -5.4 Q 450.9 -5.4 451.71 -6.53 Q 452.52 -7.67 452.52 -9.07 L 452.52 -9.07 L 452.52 -15.61 Q 452.52 -16.96 451.71 -18.12 Q 450.9 -19.28 448.9 -19.28 L 448.9 -19.28 L 438.48 -19.28 Q 435.67 -19.28 432.7 -21.33 L 432.7 -21.33 Q 429.79 -23.6 429.79 -27.86 L 429.79 -27.86 L 429.79 -34.29 Q 429.79 -36.45 430.54 -38.1 Q 431.3 -39.74 432.7 -40.77 L 432.7 -40.77 L 432.65 -40.77 Q 434.05 -41.69 435.56 -42.28 Q 437.08 -42.88 438.48 -42.88 L 438.48 -42.88 L 450.25 -42.88 Q 451.66 -42.88 453.17 -42.28 Q 454.68 -41.69 456.08 -40.77 L 456.08 -40.77 L 456.03 -40.77 Q 457.43 -39.74 458.19 -38.1 Q 458.95 -36.45 458.95 -34.29 L 458.95 -34.29 L 458.95 -31.1 Q 458.95 -28.57 455.71 -28.57 L 455.71 -28.57 Q 452.52 -28.57 452.52 -31.1 L 452.52 -31.1 L 452.52 -33.8 Q 452.52 -35.15 451.71 -36.29 Q 450.9 -37.42 448.9 -37.42 L 448.9 -37.42 L 439.83 -37.42 Q 437.83 -37.42 437.02 -36.29 Q 436.21 -35.15 436.21 -33.8 L 436.21 -33.8 L 436.21 -28.3 Q 436.21 -26.89 437.02 -25.79 Q 437.83 -24.68 439.83 -24.68 L 439.83 -24.68 Z" stroke-linecap="round" />
</g>
</g>
</g>
<g transform="matrix(1.9211538461538462 0 0 1.9211538461538462 640.4572346153848 837.459158012826)" id="tagline-cfa4ee1c-9c52-4668-856b-42d7b6b42fe4-logo"  >
<g style=""  paint-order="stroke"   >
		<g transform="matrix(1 0 0 1 -5.684342e-14 0)" id="tagline-cfa4ee1c-9c52-4668-856b-42d7b6b42fe4-logo-path-0"  >
<path style="stroke: rgb(255,255,255); stroke-width: 0; stroke-dasharray: none; stroke-linecap: butt; stroke-dashoffset: 0; stroke-linejoin: miter; stroke-miterlimit: 4; fill: rgb(0,0,0); fill-rule: nonzero; opacity: 1;"  paint-order="stroke"  transform=" translate(-164.46, 7)" d="M 1.18 -14 L 1.18 0 L 3.78 0 L 3.78 -5.82 L 7.9 -5.82 L 7.9 0 L 10.5 0 L 10.5 -14 Z M 3.78 -11.68 L 7.9 -11.68 L 7.9 -8.18 L 3.78 -8.18 Z M 34.27 -14 L 34.27 0 L 36.88 0 L 36.88 -8.74 L 40.68 0 L 43.6 0 L 43.6 -14 L 40.99 -14 L 40.99 -5.26 L 37.18 -14 Z M 54.32 -14 L 54.32 0 L 63.64 0 L 63.64 -2.32 L 56.92 -2.32 L 56.92 -5.82 L 61.32 -5.82 L 61.32 -8.18 L 56.92 -8.18 L 56.92 -11.68 L 63.64 -11.68 L 63.64 -14 Z M 73.78 -14 L 77.14 0 L 79.74 0 L 81.82 -8.6 L 83.86 0 L 86.46 0 L 89.82 -14 L 87.19 -14 L 85.18 -5.4 L 83.1 -14 L 80.47 -14 L 78.46 -5.4 L 76.41 -14 Z M 113.04 -14 L 113.04 0 L 120.6 0 L 122.36 -1.74 L 122.36 -12.26 L 120.6 -14 Z M 115.64 -11.68 L 119.76 -11.68 L 119.76 -2.32 L 115.64 -2.32 Z M 133.08 -14 L 133.08 0 L 135.69 0 L 135.69 -5.82 L 139.8 -5.82 L 139.8 0 L 142.41 0 L 142.41 -14 Z M 135.69 -11.68 L 139.8 -11.68 L 139.8 -8.18 L 135.69 -8.18 Z M 152.54 -14 L 155.9 0 L 158.51 0 L 160.58 -8.6 L 162.62 0 L 165.23 0 L 168.59 -14 L 165.96 -14 L 163.94 -5.4 L 161.87 -14 L 159.24 -14 L 157.22 -5.4 L 155.18 -14 Z M 178.75 -14 L 178.75 0 L 181.36 0 L 181.36 -8.74 L 185.16 0 L 188.08 0 L 188.08 -14 L 185.47 -14 L 185.47 -5.26 L 181.66 -14 Z M 211.85 -14 L 211.85 0 L 214.45 0 L 214.45 -14 Z M 225.18 -14 L 225.18 -5.82 L 231.9 -5.82 L 231.9 -2.32 L 225.18 -2.32 L 225.18 0 L 234.5 0 L 234.5 -8.18 L 227.78 -8.18 L 227.78 -11.68 L 234.5 -11.68 L 234.5 -14 Z M 258.27 -14 L 258.27 0 L 260.88 0 L 260.88 -5.82 L 264.99 -5.82 L 264.99 0 L 267.6 0 L 267.6 -14 L 264.99 -14 L 264.99 -8.18 L 260.88 -8.18 L 260.88 -14 Z M 278.32 -14 L 278.32 0 L 287.64 0 L 287.64 -2.32 L 280.92 -2.32 L 280.92 -5.82 L 285.32 -5.82 L 285.32 -8.18 L 280.92 -8.18 L 280.92 -11.68 L 287.64 -11.68 L 287.64 -14 Z M 298.37 -14 L 298.37 0 L 300.97 0 L 300.97 -5.82 L 302.37 -5.82 L 304.95 0 L 307.69 0 L 305.12 -5.82 L 307.69 -5.82 L 307.69 -14 Z M 300.97 -11.68 L 305.09 -11.68 L 305.09 -8.18 L 300.97 -8.18 Z M 318.42 -14 L 318.42 0 L 327.74 0 L 327.74 -2.32 L 321.02 -2.32 L 321.02 -5.82 L 325.42 -5.82 L 325.42 -8.18 L 321.02 -8.18 L 321.02 -11.68 L 327.74 -11.68 L 327.74 -14 Z" stroke-linecap="round" />
</g>
</g>
</g>
</svg>